<?xml version="1.0" encoding="UTF-8"?>
<svg version="1.1" xmlns="http://www.w3.org/2000/svg" width="512" height="512">
<path d="M0 0 C5.22067543 3.12152885 8.53407513 7.39434578 10.54296875 13.11328125 C12.10979604 19.8268988 11.95704495 25.39857732 8.625 31.5 C5.064094 36.52845956 0.82054605 41.003277 -3.375 45.5 C-3.97441406 46.14759277 -4.57382812 46.79518555 -5.19140625 47.46240234 C-8.19957734 50.71087584 -11.2221035 53.94522554 -14.2578125 57.16796875 C-17.11618472 60.20952666 -19.88293738 63.31681837 -22.60546875 66.48046875 C-24.9838442 69.19486193 -27.43008905 71.84572387 -29.875 74.5 C-32.91394492 77.80022784 -35.93656211 81.10949474 -38.875 84.5 C-42.23822638 88.37817013 -45.70835671 92.15527811 -49.18310547 95.93310547 C-53.61723628 100.75584891 -58.0001824 105.6234112 -62.375 110.5 C-63.87471128 112.16692647 -65.37471321 113.83359149 -66.875 115.5 C-67.98875 116.7375 -67.98875 116.7375 -69.125 118 C-129.875 185.5 -129.875 185.5 -132.1328125 188.0078125 C-133.60792618 189.64739879 -135.08191652 191.28799655 -136.5546875 192.9296875 C-140.67597768 197.5203061 -144.82373788 202.08447107 -149 206.625 C-152.55753099 210.49367822 -156.05789575 214.40334125 -159.5 218.375 C-162.39351009 221.65431143 -165.36588359 224.86106712 -168.328125 228.078125 C-170.88055143 230.85494057 -173.40483288 233.64980717 -175.875 236.5 C-179.2817735 240.4308925 -182.80502785 244.25196573 -186.328125 248.078125 C-188.88055143 250.85494057 -191.40483288 253.64980717 -193.875 256.5 C-197.27869233 260.4273373 -200.79766168 264.24603877 -204.31933594 268.06713867 C-206.96665458 270.94511568 -209.57171195 273.85091589 -212.125 276.8125 C-223.64026936 290.00421669 -223.64026936 290.00421669 -231.359375 290.8125 C-239.19932663 291.10153047 -244.96364557 290.16988208 -251.09912109 285.06567383 C-252.74662755 283.4849716 -254.31740008 281.85670065 -255.875 280.1875 C-257.00329391 279.01768176 -258.13349215 277.84969712 -259.265625 276.68359375 C-260.0690332 275.85190674 -260.0690332 275.85190674 -260.88867188 275.00341797 C-263.29229261 272.57216033 -265.88017977 270.38215835 -268.484375 268.171875 C-271.52013865 265.48735673 -274.31525449 262.56740015 -277.16015625 259.68359375 C-279.15159461 257.72025329 -281.18802578 255.87920331 -283.3125 254.0625 C-287.40558303 250.5553056 -291.14724704 246.74274842 -294.93359375 242.91015625 C-297.64702727 240.23145468 -300.48277023 237.75391882 -303.37890625 235.27734375 C-306.44166727 232.55022777 -309.27723493 229.60595363 -312.15625 226.6875 C-314.16930632 224.70279658 -316.22946403 222.83903084 -318.375 221 C-322.16858733 217.74835372 -325.64892647 214.24286906 -329.15625 210.6875 C-331.16930632 208.70279658 -333.22946403 206.83903084 -335.375 205 C-339.16858733 201.74835372 -342.64892647 198.24286906 -346.15625 194.6875 C-348.16930632 192.70279658 -350.22946403 190.83903084 -352.375 189 C-355.34640209 186.45308392 -358.1264401 183.78621141 -360.875 181 C-363.60329407 178.23439592 -366.36016834 175.58712969 -369.3125 173.0625 C-385.50298489 159.05025304 -385.50298489 159.05025304 -386.7109375 149.9765625 C-387.12961834 142.85898818 -385.66186079 137.24258635 -381.375 131.5 C-376.35158658 126.5470553 -371.06752487 124.55363642 -364.0546875 124.359375 C-353.55178178 124.91054789 -347.99408431 131.05822192 -340.83203125 138.08740234 C-339.04944791 139.81562406 -337.19819337 141.44787505 -335.3125 143.0625 C-331.94080763 145.97798029 -328.65361192 148.9807992 -325.375 152 C-321.41642739 155.64419551 -317.42323097 159.23913842 -313.359375 162.765625 C-309.32125309 166.29500714 -305.35585319 169.90634226 -301.375 173.5 C-299.70859149 175.00028679 -298.04192647 176.50028872 -296.375 178 C-281.375 191.5 -281.375 191.5 -266.375 205 C-265.55128906 205.73863281 -264.72757812 206.47726562 -263.87890625 207.23828125 C-262.18831179 208.76535487 -260.50881466 210.30479162 -258.83984375 211.85546875 C-248.34787112 221.87391559 -248.34787112 221.87391559 -234.796875 225.671875 C-226.77320631 225.10245335 -221.40742099 220.88897006 -216.25 215 C-215.65960938 214.3090625 -215.06921875 213.618125 -214.4609375 212.90625 C-211.98728981 210.05275379 -209.43563964 207.27507531 -206.875 204.5 C-203.8553856 201.22177883 -200.85296961 197.93418001 -197.9375 194.5625 C-194.31355356 190.37967989 -190.54244254 186.33728193 -186.77978516 182.27978516 C-183.52884488 178.76787256 -180.34515687 175.20998582 -177.21484375 171.58984375 C-174.80829844 168.85629441 -172.34196804 166.17885994 -169.875 163.5 C-166.83609823 160.19973124 -163.813439 156.89050653 -160.875 153.5 C-157.51177362 149.62182987 -154.04164329 145.84472189 -150.56689453 142.06689453 C-146.13276372 137.24415109 -141.7498176 132.3765888 -137.375 127.5 C-135.87528872 125.83307353 -134.37528679 124.16640851 -132.875 122.5 C-131.76125 121.2625 -131.76125 121.2625 -130.625 120 C-114.875 102.5 -114.875 102.5 -112.6171875 99.9921875 C-111.14207382 98.35260121 -109.66808348 96.71200345 -108.1953125 95.0703125 C-104.07402232 90.4796939 -99.92626212 85.91552893 -95.75 81.375 C-92.19246901 77.50632178 -88.69210425 73.59665875 -85.25 69.625 C-82.35648991 66.34568857 -79.38411641 63.13893288 -76.421875 59.921875 C-73.86944857 57.14505943 -71.34516712 54.35019283 -68.875 51.5 C-65.51177362 47.62182987 -62.04164329 43.84472189 -58.56689453 40.06689453 C-54.13276372 35.24415109 -49.7498176 30.3765888 -45.375 25.5 C-43.13041197 23.00514432 -40.88498883 20.51106965 -38.63671875 18.01953125 C-37.08905155 16.29544603 -35.55038594 14.56324937 -34.01953125 12.82421875 C-24.82394977 2.42720452 -14.74508339 -6.42078776 0 0 Z " fill="#000000" transform="translate(436.375,116.5)"/>
</svg>
