<svg width="512" height="512" viewBox="0 0 512 512" fill="none" xmlns="http://www.w3.org/2000/svg">
<path d="M357.476 31.554C359.864 31.5625 362.249 31.5337 364.637 31.502C380.408 31.4283 392.026 35.4351 403.75 46.3125C414.507 57.6786 416.455 70.1223 416.388 85.2444C416.392 86.7789 416.398 88.3134 416.404 89.8479C416.419 94.0436 416.414 98.2391 416.407 102.435C416.402 106.968 416.415 111.501 416.425 116.034C416.442 124.907 416.443 133.78 416.438 142.652C416.434 149.866 416.435 157.08 416.441 164.293C416.441 165.321 416.442 166.348 416.443 167.407C416.444 169.495 416.446 171.583 416.448 173.671C416.461 193.239 416.456 212.807 416.444 232.375C416.434 250.266 416.447 268.157 416.471 286.047C416.496 304.431 416.505 322.814 416.499 341.197C416.495 351.513 416.497 361.828 416.515 372.144C416.53 380.926 416.53 389.707 416.513 398.488C416.504 402.966 416.502 407.443 416.517 411.921C416.531 416.025 416.526 420.129 416.507 424.234C416.503 425.713 416.506 427.192 416.517 428.671C416.621 444.571 412.525 456.07 401.688 467.75C390.287 478.54 377.634 480.528 362.524 480.446C360.136 480.438 357.751 480.466 355.364 480.498C339.593 480.572 327.974 476.565 316.25 465.688C305.493 454.321 303.545 441.878 303.613 426.756C303.608 425.221 303.603 423.687 303.596 422.152C303.582 417.956 303.586 413.761 303.593 409.565C303.598 405.032 303.586 400.499 303.575 395.966C303.558 387.093 303.557 378.22 303.563 369.348C303.567 362.134 303.565 354.92 303.56 347.707C303.559 346.679 303.558 345.652 303.558 344.593C303.556 342.505 303.555 340.417 303.553 338.33C303.539 318.761 303.545 299.193 303.556 279.625C303.566 261.734 303.553 243.844 303.529 225.953C303.505 207.569 303.495 189.186 303.502 170.803C303.505 160.487 303.503 150.172 303.486 139.856C303.471 131.075 303.47 122.293 303.488 113.512C303.496 109.034 303.498 104.557 303.483 100.08C303.469 95.9749 303.474 91.8708 303.493 87.7662C303.497 86.2871 303.494 84.808 303.484 83.329C303.379 67.4286 307.476 55.9303 318.313 44.25C329.714 33.46 342.366 31.472 357.476 31.554Z" fill="white"/>
<path d="M149.476 31.554C151.864 31.5625 154.249 31.5337 156.636 31.502C172.407 31.4283 184.026 35.4351 195.75 46.3125C206.507 57.6786 208.455 70.1223 208.387 85.2444C208.392 86.7789 208.397 88.3134 208.404 89.8479C208.418 94.0436 208.414 98.2391 208.407 102.435C208.402 106.968 208.414 111.501 208.425 116.034C208.442 124.907 208.443 133.78 208.437 142.652C208.433 149.866 208.435 157.08 208.44 164.293C208.441 165.321 208.442 166.348 208.442 167.407C208.444 169.495 208.445 171.583 208.447 173.671C208.461 193.239 208.455 212.807 208.444 232.375C208.434 250.266 208.447 268.157 208.471 286.047C208.495 304.431 208.505 322.814 208.498 341.197C208.495 351.513 208.497 361.828 208.514 372.144C208.529 380.926 208.53 389.707 208.512 398.488C208.504 402.966 208.502 407.443 208.517 411.921C208.531 416.025 208.526 420.129 208.507 424.234C208.503 425.713 208.506 427.192 208.516 428.671C208.621 444.571 204.524 456.07 193.687 467.75C182.286 478.54 169.634 480.528 154.524 480.446C152.136 480.438 149.751 480.466 147.363 480.498C131.592 480.572 119.974 476.565 108.25 465.688C97.4925 454.321 95.5448 441.878 95.6121 426.756C95.6079 425.221 95.6024 423.687 95.5958 422.152C95.5814 417.956 95.5855 413.761 95.5929 409.565C95.5977 405.032 95.5851 400.499 95.5749 395.966C95.5577 387.093 95.5569 378.22 95.5621 369.348C95.5662 362.134 95.5647 354.92 95.5594 347.707C95.5586 346.679 95.5579 345.652 95.5571 344.593C95.5556 342.505 95.554 340.417 95.5525 338.33C95.5388 318.761 95.5442 299.193 95.5557 279.625C95.5656 261.734 95.5527 243.844 95.5287 225.953C95.5043 207.569 95.4947 189.186 95.5014 170.803C95.5049 160.487 95.5027 150.172 95.4851 139.856C95.4704 131.075 95.4698 122.293 95.4872 113.512C95.4957 109.034 95.4979 104.557 95.4826 100.08C95.4687 95.9749 95.4735 91.8708 95.4928 87.7662C95.4966 86.2871 95.4937 84.808 95.4832 83.329C95.3787 67.4286 99.4754 55.9303 110.312 44.25C121.713 33.46 134.366 31.472 149.476 31.554Z" fill="white"/>
</svg>
