<svg width="512" height="512" viewBox="0 0 512 512" fill="none" xmlns="http://www.w3.org/2000/svg">
<g clip-path="url(#clip0_2311_2)">
<path d="M130.133 22.125C136.15 25.6991 142.233 29.1583 148.313 32.625C149.519 33.3131 150.724 34.0013 151.93 34.6894C156.224 37.1389 160.519 39.5864 164.814 42.0337C168.96 44.3961 173.106 46.7598 177.25 49.125C178.123 49.623 178.123 49.623 179.014 50.1311C187.1 54.7467 195.155 59.4156 203.188 64.125C211.24 68.8453 219.345 73.4593 227.5 78C236.657 83.0985 245.737 88.313 254.778 93.6137C262.408 98.0828 270.07 102.493 277.75 106.875C278.334 107.208 278.917 107.541 279.519 107.884C282.488 109.578 285.457 111.271 288.427 112.963C294.328 116.326 300.227 119.694 306.125 123.062C306.705 123.394 307.286 123.725 307.884 124.067C317.343 129.47 326.783 134.908 336.216 140.358C344.091 144.905 351.979 149.428 359.875 153.937C360.455 154.269 361.034 154.6 361.632 154.941C367.54 158.315 373.45 161.687 379.362 165.056C382.325 166.745 385.288 168.435 388.25 170.125C388.833 170.457 389.416 170.79 390.016 171.132C399.082 176.307 408.105 181.555 417.107 186.839C423.349 190.49 429.638 194.044 435.961 197.551C457.754 209.638 478.787 221.668 486.582 246.883C488.994 259.099 486.074 270.204 479.813 280.687C466.561 300.283 442.883 310.382 422.922 321.763C414.934 326.318 406.961 330.898 399 335.5C390.055 340.668 381.096 345.814 372.125 350.937C371.545 351.269 370.966 351.6 370.368 351.941C364.46 355.315 358.55 358.687 352.638 362.056C349.675 363.745 346.712 365.435 343.75 367.125C343.167 367.457 342.584 367.79 341.984 368.132C333.898 372.748 325.844 377.416 317.813 382.125C308.722 387.454 299.554 392.629 290.348 397.755C282.247 402.276 274.225 406.922 266.222 411.614C258.592 416.083 250.93 420.493 243.25 424.875C242.666 425.208 242.083 425.541 241.481 425.884C238.512 427.578 235.543 429.271 232.573 430.963C226.672 434.326 220.773 437.694 214.875 441.062C214.295 441.394 213.714 441.725 213.116 442.067C204.732 446.856 196.361 451.669 188 456.5C176.14 463.352 164.252 470.154 152.356 476.943C147.475 479.728 142.598 482.517 137.721 485.309C134.71 487.032 131.698 488.753 128.683 490.47C123.857 493.219 119.033 495.97 114.25 498.793C97.0073 508.898 78.7767 515.332 58.5586 511.316C47.0857 507.383 38.024 500.024 32.3125 489.312C27.4245 478.859 24.8801 468.215 24.8686 456.684C24.8665 455.978 24.8645 455.272 24.8624 454.544C24.8567 452.185 24.8582 449.826 24.8596 447.466C24.857 445.755 24.854 444.044 24.8506 442.332C24.8425 437.634 24.8407 432.936 24.84 428.238C24.8381 423.168 24.8306 418.099 24.8238 413.03C24.8103 401.947 24.8042 390.865 24.7998 379.782C24.7971 372.859 24.7928 365.935 24.7883 359.012C24.7761 339.836 24.7658 320.66 24.7625 301.483C24.7622 300.256 24.762 299.029 24.7618 297.765C24.7616 296.535 24.7614 295.305 24.7611 294.038C24.7607 291.546 24.7602 289.054 24.7598 286.561C24.7596 285.325 24.7593 284.089 24.7591 282.815C24.7552 262.793 24.7377 242.77 24.7144 222.747C24.6907 202.18 24.6783 181.612 24.6771 161.044C24.6762 149.501 24.6704 137.957 24.6523 126.413C24.6368 116.582 24.6318 106.751 24.64 96.9193C24.6439 91.9068 24.643 86.8945 24.6289 81.882C24.6162 77.285 24.6175 72.6882 24.6295 68.0911C24.6315 66.4363 24.6285 64.7815 24.6197 63.1267C24.5527 49.6077 25.3965 36.1289 32 24C32.4203 23.1801 32.8405 22.3603 33.2735 21.5156C39.0009 11.0733 46.8903 5.07646 58 0.999968C84.2974 -6.49274 108.624 9.30321 130.133 22.125Z" fill="white"/>
</g>
<defs>
<clipPath id="clip0_2311_2">
<rect width="512" height="512" fill="white"/>
</clipPath>
</defs>
</svg>
