<svg width="400" height="400" viewBox="0 0 400 400" fill="none" xmlns="http://www.w3.org/2000/svg">
<path d="M223.641 49.2101C231.329 54.8503 235.664 62.4907 240.552 70.5156C242.482 73.6716 244.446 76.8054 246.41 79.9403C247.98 82.4463 249.546 84.9547 251.111 87.4638C253.711 91.6311 256.312 95.7975 258.914 99.9632C259.941 101.607 260.968 103.251 261.994 104.896C264.552 108.992 267.112 113.088 269.675 117.181C275.05 125.769 280.393 134.376 285.691 143.012C289.846 149.783 294.033 156.531 298.285 163.242C303.14 170.904 307.935 178.604 312.735 186.3C314.314 188.83 315.895 191.359 317.476 193.888C322.777 202.366 328.062 210.854 333.317 219.361C338.224 227.301 343.174 235.215 348.123 243.13C351.216 248.076 354.305 253.025 357.395 257.973C360.535 263.002 363.679 268.028 366.825 273.053C368.376 275.533 369.921 278.017 371.466 280.5C373.301 283.45 375.156 286.383 377.037 289.304C384.875 301.577 388.851 312.983 386.161 327.605C383.263 338.177 377.301 346.864 367.79 352.436C361.679 355.604 356.08 357.78 349.116 357.789C348.033 357.794 346.951 357.799 345.835 357.805C344.644 357.802 343.452 357.8 342.26 357.797C340.987 357.8 339.713 357.804 338.44 357.808C334.946 357.818 331.452 357.818 327.958 357.816C324.187 357.816 320.416 357.825 316.646 357.833C309.26 357.846 301.875 357.851 294.489 357.852C288.485 357.853 282.48 357.856 276.475 357.861C259.446 357.876 242.416 357.883 225.386 357.882C224.469 357.882 223.551 357.882 222.605 357.882C221.686 357.882 220.767 357.882 219.82 357.882C204.929 357.881 190.039 357.897 175.148 357.92C159.853 357.944 144.558 357.955 129.263 357.954C120.678 357.953 112.094 357.958 103.509 357.975C96.1988 357.99 88.8888 357.994 81.5787 357.983C77.8511 357.977 74.1236 357.977 70.3959 357.992C66.9787 358.004 63.5618 358.002 60.1446 357.988C58.9131 357.985 57.6815 357.988 56.45 357.997C44.1892 358.083 33.862 355.207 24.5965 346.851C16.3197 338.176 12.8645 327.808 13.0041 316.055C13.4074 302.323 20.9226 292.29 28.0954 281.031C28.935 279.697 29.7736 278.363 30.611 277.028C32.2017 274.496 33.799 271.968 35.4014 269.444C38.2822 264.9 41.1319 260.337 43.9798 255.773C44.4982 254.942 45.0166 254.111 45.5507 253.256C46.6075 251.562 47.6642 249.868 48.7208 248.174C50.791 244.856 52.8627 241.539 54.9346 238.222C55.9615 236.578 56.9883 234.934 58.0149 233.29C60.5729 229.193 63.1325 225.098 65.6957 221.004C71.0707 212.416 76.4137 203.81 81.7119 195.174C85.8667 188.403 90.0537 181.654 94.306 174.944C99.161 167.282 103.955 159.582 108.756 151.885C110.335 149.355 111.916 146.826 113.497 144.298C118.358 136.523 123.21 128.744 128.029 120.943C133.367 112.301 138.747 103.686 144.133 95.074C146.247 91.6912 148.358 88.3065 150.469 84.9216C152.013 82.4493 153.56 79.9795 155.107 77.5097C157.02 74.4538 158.912 71.3869 160.787 68.308C168.425 55.8354 175.86 47.0118 190.494 42.9116C202.196 40.6209 213.611 42.6209 223.641 49.2101Z" fill="#FED44E"/>
<path d="M223.641 49.2101C231.329 54.8503 235.664 62.4907 240.552 70.5156C242.482 73.6716 244.446 76.8054 246.41 79.9403C247.98 82.4463 249.546 84.9547 251.111 87.4638C253.711 91.6311 256.312 95.7975 258.914 99.9632C259.941 101.607 260.968 103.251 261.994 104.896C264.552 108.992 267.112 113.088 269.675 117.181C275.05 125.769 280.393 134.376 285.691 143.012C289.846 149.783 294.033 156.531 298.285 163.242C303.14 170.904 307.935 178.604 312.735 186.3C314.314 188.83 315.895 191.359 317.476 193.888C322.777 202.366 328.062 210.854 333.317 219.361C338.224 227.301 343.174 235.215 348.123 243.13C351.216 248.076 354.305 253.025 357.395 257.973C360.535 263.002 363.679 268.028 366.825 273.053C368.376 275.533 369.921 278.017 371.466 280.5C373.301 283.45 375.156 286.383 377.037 289.304C384.875 301.577 388.851 312.983 386.161 327.605C383.263 338.177 377.301 346.864 367.79 352.436C361.679 355.604 356.08 357.78 349.116 357.789C348.033 357.794 346.951 357.799 345.835 357.805C344.644 357.802 343.452 357.8 342.26 357.797C340.987 357.8 339.713 357.804 338.44 357.808C334.946 357.818 331.452 357.818 327.958 357.816C324.187 357.816 320.416 357.825 316.646 357.833C309.26 357.846 301.875 357.851 294.489 357.852C288.485 357.853 282.48 357.856 276.475 357.861C259.446 357.876 242.416 357.883 225.386 357.882C224.469 357.882 223.551 357.882 222.605 357.882C221.686 357.882 220.767 357.882 219.82 357.882C204.929 357.881 190.039 357.897 175.148 357.92C159.853 357.944 144.558 357.955 129.263 357.954C120.678 357.953 112.094 357.958 103.509 357.975C96.1988 357.99 88.8888 357.994 81.5787 357.983C77.8511 357.977 74.1236 357.977 70.3959 357.992C66.9787 358.004 63.5618 358.002 60.1446 357.988C58.9131 357.985 57.6815 357.988 56.45 357.997C44.1892 358.083 33.862 355.207 24.5965 346.851C16.3197 338.176 12.8645 327.808 13.0041 316.055C13.4074 302.323 20.9226 292.29 28.0954 281.031C28.935 279.697 29.7736 278.363 30.611 277.028C32.2017 274.496 33.799 271.968 35.4014 269.444C38.2822 264.9 41.1319 260.337 43.9798 255.773C44.4982 254.942 45.0166 254.111 45.5507 253.256C46.6075 251.562 47.6642 249.868 48.7208 248.174C50.791 244.856 52.8627 241.539 54.9346 238.222C55.9615 236.578 56.9883 234.934 58.0149 233.29C60.5729 229.193 63.1325 225.098 65.6957 221.004C71.0707 212.416 76.4137 203.81 81.7119 195.174C85.8667 188.403 90.0537 181.654 94.306 174.944C99.161 167.282 103.955 159.582 108.756 151.885C110.335 149.355 111.916 146.826 113.497 144.298C118.358 136.523 123.21 128.744 128.029 120.943C133.367 112.301 138.747 103.686 144.133 95.074C146.247 91.6912 148.358 88.3065 150.469 84.9216C152.013 82.4493 153.56 79.9795 155.107 77.5097C157.02 74.4538 158.912 71.3869 160.787 68.308C168.425 55.8354 175.86 47.0118 190.494 42.9116C202.196 40.6209 213.611 42.6209 223.641 49.2101ZM189.485 73.5905C186.8 77.2603 184.444 81.1171 182.057 84.9849C180.946 86.7736 179.835 88.5623 178.725 90.351C178.159 91.2641 177.593 92.1772 177.01 93.118C174.402 97.3237 171.777 101.52 169.154 105.716C168.125 107.362 167.097 109.008 166.069 110.655C159.901 120.531 159.901 120.531 158.359 123C157.33 124.648 156.301 126.295 155.272 127.943C152.714 132.039 150.155 136.134 147.592 140.227C142.217 148.815 136.874 157.422 131.576 166.058C127.421 172.829 123.234 179.577 118.982 186.288C114.123 193.956 109.325 201.662 104.521 209.364C102.975 211.841 101.427 214.315 99.8775 216.789C94.5053 225.372 89.1658 233.973 83.871 242.604C79.7161 249.375 75.5292 256.123 71.2769 262.834C66.9668 269.636 62.7059 276.468 58.4442 283.301C56.2421 286.831 54.0354 290.359 51.8257 293.885C51.2694 294.773 50.7131 295.662 50.1399 296.577C49.0772 298.274 48.0137 299.971 46.9491 301.666C45.5909 303.837 44.2417 306.012 42.9003 308.192C42.5486 308.761 42.197 309.33 41.8346 309.915C39.6007 313.646 38.945 316.274 39.6103 320.539C40.8513 325.04 42.8013 327.533 46.503 330.195C50.9968 332.371 55.9745 331.911 60.8644 331.86C62.1105 331.865 63.3566 331.872 64.6027 331.882C68.017 331.901 71.4306 331.889 74.8449 331.872C78.5308 331.859 82.2166 331.875 85.9025 331.887C93.1192 331.905 100.336 331.898 107.552 331.881C113.418 331.867 119.283 331.864 125.149 331.867C126.401 331.868 126.401 331.868 127.679 331.869C129.375 331.87 131.071 331.871 132.768 331.872C148.671 331.882 164.575 331.862 180.479 331.832C194.123 331.807 207.768 331.805 221.412 331.82C237.259 331.838 253.106 331.844 268.953 331.827C270.643 331.825 272.333 331.823 274.023 331.821C274.855 331.82 275.686 331.82 276.543 331.819C282.401 331.813 288.259 331.817 294.117 331.825C301.257 331.833 308.396 331.827 315.535 331.802C319.178 331.79 322.82 331.784 326.462 331.796C329.798 331.806 333.133 331.798 336.468 331.775C337.673 331.769 338.879 331.771 340.084 331.781C349.4 331.863 349.4 331.863 357.094 327.123C359.688 323.476 360.794 320.346 360.693 315.774C360.082 312.17 358.021 309.314 356.066 306.289C355.619 305.572 355.172 304.854 354.711 304.115C353.326 301.898 351.921 299.695 350.514 297.492C349.707 296.208 348.9 294.923 348.095 293.638C346.493 291.084 344.883 288.536 343.266 285.992C340.364 281.42 337.496 276.828 334.63 272.234C334.111 271.403 333.592 270.571 333.058 269.714C332 268.019 330.943 266.324 329.885 264.629C328.339 262.152 326.791 259.678 325.242 257.204C319.87 248.621 314.53 240.02 309.235 231.389C305.08 224.618 300.893 217.87 296.641 211.159C291.786 203.497 286.992 195.797 282.191 188.101C280.612 185.571 279.032 183.042 277.45 180.513C272.149 172.035 266.864 163.547 261.61 155.04C256.702 147.099 251.753 139.186 246.803 131.271C244.223 127.144 241.644 123.014 239.066 118.885C238.559 118.074 238.052 117.262 237.53 116.426C234.399 111.414 231.271 106.401 228.143 101.388C226.602 98.9185 225.057 96.4512 223.512 93.9841C221.572 90.883 219.647 87.7727 217.736 84.6537C216.861 83.238 215.986 81.8223 215.111 80.4065C214.722 79.7643 214.333 79.1221 213.933 78.4604C211.021 73.7741 207.951 70.2464 202.465 68.6777C196.959 68.0655 193.163 69.5226 189.485 73.5905Z" fill="#020200"/>
<path d="M210.021 142.668C214.833 146.995 216.245 152.608 216.91 158.908C217.006 161.259 217.016 163.591 216.983 165.943C216.975 166.832 216.968 167.72 216.961 168.635C216.807 177.354 215.912 185.96 214.94 194.62C214.313 200.225 213.835 205.837 213.388 211.459C213.25 213.156 213.113 214.853 212.975 216.55C212.77 219.071 212.57 221.592 212.382 224.115C210.654 247.197 210.654 247.197 205.241 252.672C201.93 253.869 199.359 254.409 195.889 253.648C191.365 251.116 190.327 248.611 188.962 243.794C187.891 239.014 187.544 234.166 187.16 229.295C187.06 228.094 186.96 226.893 186.859 225.692C186.522 221.585 186.214 217.476 185.913 213.367C185.856 212.584 185.799 211.801 185.74 210.994C183.237 176.507 183.237 176.507 183.056 161.576C183.037 160.803 183.019 160.03 183 159.233C183.019 153.626 184.466 149.39 188.196 145.115C195.046 139.703 202.024 138.106 210.021 142.668Z" fill="#020100"/>
<path d="M207.891 274.792C211.989 277.154 214.817 280.599 216.644 284.96C217.429 290.266 217.089 294.73 213.838 299.098C210.681 302.64 208.191 305.11 203.36 305.947C198.292 306.164 194.109 305.829 189.999 302.702C185.81 298.683 184.259 295.342 184 289.479C184.258 283.633 185.778 280.194 190.056 276.256C195.397 272.31 201.883 272.112 207.891 274.792Z" fill="#020200"/>
<path d="M178.267 48C178.839 48.2681 179.411 48.5362 180 48.8125C175.71 52.8344 171.42 56.8563 167 61C167 57.01 170.203 54.8172 173.067 52.0625C174.753 50.6288 176.47 49.3145 178.267 48Z" fill="#362E11"/>
</svg>
