<svg width="512" height="512" viewBox="0 0 512 512" fill="none" xmlns="http://www.w3.org/2000/svg">
<g clip-path="url(#clip0_120_11)">
<path d="M204.934 -0.23828C206.174 -0.253039 206.174 -0.253039 207.44 -0.268096C256.639 -0.732447 302.837 10.4032 343 40C344.53 41.1002 344.53 41.1002 346.09 42.2227C392.699 76.7326 422.787 128.687 431.481 185.777C438.975 241.139 425.451 299.561 391.595 344.309C389.091 347.562 386.557 350.788 384 354C385.577 357.816 387.979 360.218 390.89 363.11C391.392 363.612 391.894 364.113 392.411 364.63C394.093 366.308 395.782 367.979 397.471 369.65C398.678 370.852 399.885 372.055 401.092 373.258C403.692 375.848 406.294 378.434 408.899 381.019C413.018 385.106 417.129 389.202 421.239 393.299C431.449 403.475 441.668 413.641 451.893 423.803C459.837 431.699 467.778 439.598 475.708 447.507C479.792 451.58 483.883 455.645 487.979 459.705C490.527 462.234 493.07 464.77 495.61 467.307C496.788 468.481 497.969 469.653 499.152 470.821C500.77 472.419 502.377 474.026 503.983 475.636C504.885 476.532 505.787 477.428 506.716 478.352C511.662 484.086 512.504 488.815 512.277 496.164C511.645 502.632 508.479 505.823 503.719 509.801C500.381 512.129 497.201 512.217 493.25 512.312C492.245 512.35 491.239 512.387 490.203 512.426C483.604 511.549 479.012 507.387 474.451 502.811C473.682 502.047 473.682 502.047 472.898 501.267C471.199 499.573 469.511 497.868 467.823 496.163C466.601 494.94 465.378 493.718 464.154 492.496C460.847 489.189 457.548 485.873 454.251 482.555C450.8 479.085 447.34 475.624 443.881 472.161C437.338 465.608 430.802 459.048 424.268 452.484C416.828 445.011 409.379 437.545 401.93 430.081C386.61 414.73 371.302 399.369 356 384C353.245 385.346 350.849 386.755 348.41 388.617C301.701 423.673 243.892 439.411 185.767 431.476C152.776 426.433 120.029 414.965 93.0001 395C92.0705 394.327 92.0705 394.327 91.1221 393.64C79.98 385.542 69.7601 376.715 60.0001 367C59.4551 366.459 58.9102 365.918 58.3487 365.361C31.0129 337.88 12.4507 300.583 4.00006 263C3.78833 262.061 3.57661 261.122 3.35846 260.155C-2.40623 233.163 -2.83092 202.014 3.00006 175C3.16635 174.168 3.33264 173.336 3.50397 172.479C12.2293 129.2 33.9996 92.0005 65.0001 61C65.6137 60.34 66.2272 59.68 66.8594 59C74.1006 51.3399 82.4994 45.1769 91.0001 39C91.6269 38.5445 92.2537 38.089 92.8995 37.6196C124.786 14.7578 165.485 0.151316 204.934 -0.23828ZM131 60C130.362 60.3532 129.725 60.7064 129.067 61.0703C114.447 69.2774 102.093 79.4523 90.0001 91C89.3452 91.602 88.6904 92.204 88.0157 92.8242C55.9347 123.148 39.4992 169.753 38.0001 213C37.2952 260.18 55.407 304.242 87.1251 338.875C87.5914 339.386 88.0577 339.897 88.5381 340.424C109.946 363.336 137.452 378.163 167.067 387.395C168.653 387.891 170.232 388.409 171.809 388.934C214.079 401.987 262.22 393.207 300.688 373.188C340.746 351.53 372.355 313.966 386.246 270.53C388.65 262.464 390.43 254.265 392 246C392.133 245.314 392.266 244.629 392.402 243.922C398.853 208.909 392.189 171.834 377 140C376.715 139.389 376.43 138.779 376.137 138.149C365.972 116.416 349.995 94.9521 331 80C330.477 79.5807 329.953 79.1615 329.414 78.7295C303.532 58.1169 274.533 45.5891 242 40C241.038 39.8157 240.077 39.6313 239.086 39.4414C202.286 34.1776 163.379 42.0393 131 60Z" fill="#62528B"/>
<path d="M139.098 113.262C143.736 117.014 146.584 120.693 147.348 126.766C147.868 137.383 143.836 141.859 137.187 149.625C120.951 168.723 115.142 191.73 116.161 216.443C116.365 223.944 114.257 229.434 109 235C103.705 238.706 99.4362 239.429 93 239C87.3238 237.803 83.9154 235.432 80.2265 231.012C77.1825 226.019 76.5931 220.794 76.3125 215.062C76.2748 214.316 76.2372 213.569 76.1984 212.8C74.6391 175.73 88.9566 143.679 113.324 116.496C120.639 109.672 130.332 107.989 139.098 113.262Z" fill="#62528B"/>
</g>
<defs>
<clipPath id="clip0_120_11">
<rect width="512" height="512" fill="white"/>
</clipPath>
</defs>
</svg>
