<?xml version="1.0" encoding="UTF-8"?>
<svg version="1.1" xmlns="http://www.w3.org/2000/svg" width="512" height="512">
<path d="M0 0 C1.010625 0.66 2.02125 1.32 3.0625 2 C5 4 5 4 5.75 6.375 C4.32597507 11.35908725 -0.46445721 14.09584188 -4.75146484 16.62011719 C-7.99843438 18.35921414 -11.2714355 20.03338277 -14.5625 21.6875 C-15.76278978 22.30004035 -16.96265429 22.91341468 -18.16210938 23.52758789 C-24.81312057 26.92420766 -31.50148465 30.24464799 -38.19750977 33.55151367 C-56.07307 41.28280963 -56.07307 41.28280963 -67.75 55.8125 C-71.33348895 67.71126718 -69.61553045 81.29275733 -63.85986328 92.15087891 C-58.71295268 101.32749603 -53.00949826 110.12942113 -46 118 C-45.46375 118.64066406 -44.9275 119.28132812 -44.375 119.94140625 C-39.27087527 125.62219892 -32.18561431 130.65995972 -24.37890625 131.171875 C-9.60408954 129.1029509 5.37967476 120.04375181 18.625 113.5 C24.41109327 110.65523434 30.20129086 107.81896736 36 105 C36.70291168 104.65774384 37.40582336 104.31548767 38.1300354 103.96286011 C40.16500877 102.97638617 42.20459626 102.00023176 44.24609375 101.02734375 C45.41841553 100.46523193 46.5907373 99.90312012 47.79858398 99.32397461 C51.9934174 97.58916323 55.48403196 97.07922751 60 97 C60.27236389 102.99200565 59.7988107 108.17129596 57.8125 113.875 C57.55549316 114.62402588 57.29848633 115.37305176 57.03369141 116.14477539 C48.79651798 138.9966568 36.89701502 161.53778482 21 180 C20.27296875 180.94166016 20.27296875 180.94166016 19.53125 181.90234375 C8.53410545 195.86260781 -11.85652349 203.47342723 -29.0078125 205.53125 C-43.4508328 206.92368387 -59.13712448 204.9046312 -72.0625 197.87890625 C-77.78094197 195.28485495 -84.73133195 196.25977757 -90.5078125 198.14453125 C-96.82459382 201.04855488 -101.93442678 204.51303505 -106.95718384 209.29637146 C-107.50988941 209.81492594 -108.06259498 210.33348042 -108.6320492 210.86774868 C-115.77931602 217.61482274 -122.72922061 224.56498793 -129.68505859 231.50805664 C-131.21236749 233.02908325 -132.73985902 234.5499265 -134.26751709 236.07060242 C-139.23133023 241.01360883 -144.19002146 245.96173694 -149.1484375 250.91015625 C-150.86600299 252.62366752 -152.58359989 254.33714731 -154.30122757 256.05059624 C-162.36351911 264.09389954 -170.42344061 272.13956844 -178.4804281 280.1881848 C-187.75004478 289.44800722 -197.02790668 298.69946567 -206.3127569 307.9440127 C-213.51587067 315.11693788 -220.71126381 322.29754963 -227.90095389 329.48392957 C-232.1846495 333.76528103 -236.47154964 338.04330014 -240.76667404 342.31318855 C-244.80242155 346.32559764 -248.82847008 350.34749409 -252.847435 354.37671089 C-254.31810558 355.84787527 -255.7921653 357.31566117 -257.26995468 358.77967453 C-264.89623226 366.3388493 -271.87481869 373.46486532 -277 383 C-277.35324026 383.63848405 -277.70648052 384.2769681 -278.07042503 384.93480015 C-281.21230827 391.28578304 -280.16563688 397.19984206 -279 403.875 C-275.79158821 423.84101584 -277.80045253 446.31760592 -289.4375 463.375 C-290.61029113 464.92788548 -291.79664361 466.470678 -293 468 C-293.43699219 468.61230469 -293.87398437 469.22460938 -294.32421875 469.85546875 C-305.54459576 484.58010765 -326.29872227 491.94140006 -343.92578125 494.58984375 C-364.82521635 496.95339543 -386.478432 494.13064222 -404.390625 482.625 C-406.45873558 480.53681067 -406.67021073 478.87110656 -407 476 C-402.32176061 471.63323511 -397.70573943 468.52256294 -391.93359375 465.79296875 C-391.1776442 465.42327469 -390.42169464 465.05358063 -389.64283752 464.67268372 C-387.24571025 463.50107463 -384.84249706 462.34285836 -382.4375 461.1875 C-362.62212825 453.13949665 -362.62212825 453.13949665 -347.625 439.4375 C-347.13299339 437.40565791 -347.13299339 437.40565791 -347 435 C-346.89429688 433.81148438 -346.78859375 432.62296875 -346.6796875 431.3984375 C-345.74652416 415.30725119 -352.82879815 403.61434206 -362 391 C-362.5259375 390.25492187 -363.051875 389.50984375 -363.59375 388.7421875 C-367.56341709 383.59546796 -373.09116099 379.63773139 -379 377 C-384.29864827 376.45607878 -388.50474205 377.552634 -393.375 379.5 C-394.06271484 379.76699707 -394.75042969 380.03399414 -395.45898438 380.30908203 C-406.38467969 384.63733825 -416.88167064 389.91707212 -427.375 395.1875 C-429.91531394 396.4610589 -432.45693888 397.73193599 -435 399 C-436.06734375 399.53238281 -437.1346875 400.06476563 -438.234375 400.61328125 C-439.18828125 401.07089844 -440.1421875 401.52851563 -441.125 402 C-441.93195313 402.391875 -442.73890625 402.78375 -443.5703125 403.1875 C-446.47885908 404.16013294 -448.95354167 404.14128502 -452 404 C-452.37463556 396.86751539 -451.27132016 391.52520158 -448.75 384.875 C-448.22297485 383.46069702 -448.22297485 383.46069702 -447.68530273 382.01782227 C-441.52899403 366.06983813 -433.48111492 350.5457684 -423 337 C-422.14728516 335.85724609 -422.14728516 335.85724609 -421.27734375 334.69140625 C-411.17629283 322.05912272 -394.50594634 316.29848691 -379 314 C-370.98103931 313.13136753 -364.06960928 314.59197406 -356.36816406 316.56103516 C-346.93745352 318.89010277 -337.90229289 319.48938795 -329 315 C-326.26262946 312.91892142 -323.90939411 310.53405974 -321.51757812 308.06933594 C-320.8172496 307.36813126 -320.11692108 306.66692657 -319.39537048 305.94447327 C-317.09539732 303.63595711 -314.81353951 301.31036388 -312.53125 298.984375 C-310.92634396 297.36758878 -309.32024536 295.75198557 -307.7130127 294.13751221 C-303.49000162 289.88979201 -299.28177738 285.62772627 -295.07696533 281.36199951 C-289.15948024 275.36406544 -283.22222449 269.38569264 -277.2869873 263.40533447 C-274.12980181 260.22407337 -270.97825345 257.03739044 -267.83117676 253.84613037 C-266.38161847 252.38014126 -264.93203483 250.91417724 -263.48242188 249.44824219 C-262.52051186 248.46915642 -262.52051186 248.46915642 -261.53916931 247.47029114 C-257.80670045 243.70223441 -253.94457002 240.16592625 -249.93055153 236.70051765 C-246.94421375 234.07001542 -244.13594444 231.27551312 -241.32788086 228.45727539 C-240.71372818 227.84487503 -240.0995755 227.23247467 -239.46681213 226.60151672 C-237.46365601 224.60271494 -235.46412516 222.6003331 -233.46484375 220.59765625 C-232.05829696 219.19178434 -230.65160185 217.7860608 -229.24476624 216.38047791 C-226.30730236 213.44448232 -223.37163918 210.50670131 -220.43725586 207.56762695 C-216.6929794 203.81765377 -212.94423066 200.07218869 -209.19411373 196.32805729 C-206.2916656 193.42923828 -203.39162265 190.52802245 -200.49228096 187.62609673 C-199.11164105 186.24479405 -197.73026988 184.86422185 -196.34812737 183.48442268 C-187.0698279 174.24977641 -187.0698279 174.24977641 -178.31129456 164.5269928 C-176.59592384 162.5294563 -174.75056191 160.70077078 -172.84375 158.88671875 C-159.87880178 146.36792378 -148.98875841 134.07856573 -147.75 115.1875 C-147.77682773 111.04261516 -148.5727478 107.34517229 -149.5 103.3125 C-155.08022255 77.13287614 -151.66069685 47.64869141 -137 25 C-121.11522876 3.3614728 -97.99779174 -7.65139224 -72 -12 C-48.35715068 -15.48549222 -20.46437951 -13.39245571 0 0 Z " fill="#A5AAB9" transform="translate(452,15)"/>
<path d="M0 0 C0.27236389 5.99200565 -0.2011893 11.17129596 -2.1875 16.875 C-2.57301025 17.99853882 -2.57301025 17.99853882 -2.96630859 19.14477539 C-11.20348202 41.9966568 -23.10298498 64.53778482 -39 83 C-39.72703125 83.94166016 -39.72703125 83.94166016 -40.46875 84.90234375 C-51.46589455 98.86260781 -71.85652349 106.47342723 -89.0078125 108.53125 C-103.4508328 109.92368387 -119.13712448 107.9046312 -132.0625 100.87890625 C-137.78094197 98.28485495 -144.73133195 99.25977757 -150.5078125 101.14453125 C-156.82459382 104.04855488 -161.93442678 107.51303505 -166.95718384 112.29637146 C-167.50988941 112.81492594 -168.06259498 113.33348042 -168.6320492 113.86774868 C-175.77931602 120.61482274 -182.72922061 127.56498793 -189.68505859 134.50805664 C-191.21236749 136.02908325 -192.73985902 137.5499265 -194.26751709 139.07060242 C-199.23133023 144.01360883 -204.19002146 148.96173694 -209.1484375 153.91015625 C-210.86600299 155.62366752 -212.58359989 157.33714731 -214.30122757 159.05059624 C-222.36351911 167.09389954 -230.42344061 175.13956844 -238.4804281 183.1881848 C-247.75004478 192.44800722 -257.02790668 201.69946567 -266.3127569 210.9440127 C-273.51587067 218.11693788 -280.71126381 225.29754963 -287.90095389 232.48392957 C-292.1846495 236.76528103 -296.47154964 241.04330014 -300.76667404 245.31318855 C-304.80242155 249.32559764 -308.82847008 253.34749409 -312.847435 257.37671089 C-314.31810558 258.84787527 -315.7921653 260.31566117 -317.26995468 261.77967453 C-324.89623226 269.3388493 -331.87481869 276.46486532 -337 286 C-337.35324026 286.63848405 -337.70648052 287.2769681 -338.07042503 287.93480015 C-341.21230827 294.28578304 -340.16563688 300.19984206 -339 306.875 C-335.79158821 326.84101584 -337.80045253 349.31760592 -349.4375 366.375 C-350.61029113 367.92788548 -351.79664361 369.470678 -353 371 C-353.43699219 371.61230469 -353.87398438 372.22460938 -354.32421875 372.85546875 C-365.54459576 387.58010765 -386.29872227 394.94140006 -403.92578125 397.58984375 C-424.82521635 399.95339543 -446.478432 397.13064222 -464.390625 385.625 C-466.45873558 383.53681067 -466.67021073 381.87110656 -467 379 C-465.4296875 377.88671875 -465.4296875 377.88671875 -463 377 C-459.7578125 377.64453125 -459.7578125 377.64453125 -456.125 378.8125 C-433.13621623 386.08648882 -409.06393529 381.76826056 -387.7890625 371.44140625 C-372.42565063 363.20677547 -362.2006147 349.49709018 -356.7421875 333.09765625 C-353.45910773 319.39511807 -352.48097322 304.16664275 -355.53125 290.41796875 C-357.46029129 280.46733076 -355.46473963 273.45494557 -350 265 C-341.76507242 255.11059001 -332.32106236 246.16028778 -323.23828125 237.0612793 C-321.67799263 235.49471069 -320.11788843 233.92795839 -318.55795288 232.36103821 C-313.47966222 227.26190985 -308.39622109 222.16793212 -303.3125 217.07421875 C-301.55348595 215.31115135 -299.79450381 213.54805212 -298.03555298 211.78492165 C-290.24917647 203.98063319 -282.4610406 196.17810723 -274.66964108 188.37883334 C-273.25143312 186.95918719 -271.83323178 185.53953442 -270.41503906 184.11987305 C-269.94564663 183.64999687 -269.4762542 183.1801207 -268.99263775 182.69600586 C-261.37631937 175.07137331 -253.76857196 167.43824789 -246.16432488 159.80157819 C-238.32802962 151.93214715 -230.48399227 144.07049074 -222.63287258 136.21584827 C-218.23637111 131.81700196 -213.84320423 127.41494551 -209.4581604 123.00467491 C-205.33660003 118.85978046 -201.2055547 114.72457699 -197.06718826 110.59646416 C-195.55571083 109.08548066 -194.04761421 107.57110598 -192.54328537 106.05300522 C-170.57160464 83.89156112 -170.57160464 83.89156112 -156.6875 83.5 C-149.30356276 83.57756237 -143.56506663 85.64599076 -136.88671875 88.4921875 C-119.83882447 95.45605459 -99.47117543 93.68809824 -82.68359375 87.046875 C-55.71330048 75.5311006 -42.52220096 52.96633125 -29.8125 27.875 C-29.30879883 26.88838379 -29.30879883 26.88838379 -28.79492188 25.88183594 C-27.19042789 22.66808214 -25.78104475 19.50880952 -24.66015625 16.09375 C-21.52705523 7.02775555 -21.52705523 7.02775555 -16.7265625 3.796875 C-11.23355267 1.14121769 -6.13835545 -0.31814647 0 0 Z " fill="#858995" transform="translate(512,112)"/>
<path d="M0 0 C-0.5679126 0.26562744 -1.1358252 0.53125488 -1.72094727 0.80493164 C-4.03520684 1.9552336 -4.03520684 1.9552336 -6.13647461 3.50561523 C-13.09433223 8.33314421 -18.28307703 8.57917265 -26.5625 8.0625 C-46.22147829 7.47645266 -64.49607413 10.96375057 -82 20 C-82.98742187 20.46019531 -83.97484375 20.92039062 -84.9921875 21.39453125 C-92.88745102 25.27506445 -98.83438546 30.84346589 -105 37 C-105.59683594 37.58523437 -106.19367188 38.17046875 -106.80859375 38.7734375 C-121.84203299 54.82540244 -126.39794384 77.55058234 -126.3125 98.75 C-126.31233887 99.41297089 -126.31217773 100.07594177 -126.31201172 100.75900269 C-126.29725586 109.48828073 -125.75079221 117.42102243 -123.6875 125.90234375 C-120.84507088 138.70942494 -124.48747621 149.30846172 -130.9375 160.375 C-134.03524152 164.92556791 -137.52309514 168.88834959 -141.29043579 172.87802124 C-141.90366593 173.53078706 -142.51689607 174.18355288 -143.14870894 174.85609949 C-150.10636103 182.226589 -157.25167389 189.40749322 -164.41552734 196.57666016 C-165.90231596 198.06809276 -167.38891294 199.55971643 -168.87533569 201.05151367 C-172.86417582 205.05330957 -176.85620105 209.05191203 -180.84928465 213.04947329 C-183.34944428 215.55258522 -185.8490249 218.05627399 -188.34843826 220.56013107 C-196.18644764 228.4117578 -204.02641305 236.26142339 -211.86929166 244.10818636 C-220.89376047 253.13715152 -229.91161747 262.17265337 -238.92389333 271.21378863 C-245.91851792 278.23002859 -252.91889566 285.24049422 -259.92366755 292.24660337 C-264.09683768 296.42081965 -268.26756011 300.59741246 -272.43229294 304.78004837 C-276.34102518 308.70526336 -280.25686022 312.62325074 -284.17822647 316.5358429 C-285.6126836 317.96953035 -287.04459285 319.40577242 -288.47370911 320.84478378 C-290.429466 322.81328385 -292.39433077 324.7722352 -294.36166382 326.72915649 C-295.19952142 327.5790987 -295.19952142 327.5790987 -296.05430543 328.44621146 C-303.38871688 335.69057957 -309.75706721 339.12226366 -320.125 339.25 C-321.36507812 339.27578125 -322.60515625 339.3015625 -323.8828125 339.328125 C-327.0892644 339.22174052 -329.74898743 338.52156129 -332.7890625 337.51171875 C-338.32122508 335.73589773 -343.46953311 335.50029741 -349.25 335.5625 C-350.25925537 335.57152344 -351.26851074 335.58054687 -352.30834961 335.58984375 C-367.91861781 335.95005185 -382.21798829 341.32090737 -393.75 352.0625 C-397.95770124 356.54495786 -401.26419232 361.62829231 -404.46386719 366.85961914 C-404.85219727 367.4808667 -405.24052734 368.10211426 -405.640625 368.7421875 C-405.97610352 369.2976123 -406.31158203 369.85303711 -406.65722656 370.42529297 C-410.84160716 375.33243022 -418.51364495 377.84874102 -424.1875 380.6875 C-425.19748047 381.19861328 -426.20746094 381.70972656 -427.24804688 382.23632812 C-428.21162109 382.71908203 -429.17519531 383.20183594 -430.16796875 383.69921875 C-431.04735107 384.14096436 -431.9267334 384.58270996 -432.83276367 385.0378418 C-435 386 -435 386 -437 386 C-436.07019 380.54097948 -433.87925636 376.02609816 -431.5 371.0625 C-431.05148682 370.12680176 -430.60297363 369.19110352 -430.14086914 368.22705078 C-419.79614846 347.04231563 -407.21863833 330.09425906 -384.328125 322.0625 C-372.55208905 318.35126443 -361.48232213 317.91790688 -349.5625 321 C-339.41594382 323.59849451 -329.70939361 324.89640537 -320 320 C-317.26262946 317.91892142 -314.90939411 315.53405974 -312.51757812 313.06933594 C-311.8172496 312.36813126 -311.11692108 311.66692657 -310.39537048 310.94447327 C-308.09539732 308.63595711 -305.81353951 306.31036388 -303.53125 303.984375 C-301.92634396 302.36758878 -300.32024536 300.75198557 -298.7130127 299.13751221 C-294.49000162 294.88979201 -290.28177738 290.62772627 -286.07696533 286.36199951 C-280.15948024 280.36406544 -274.22222449 274.38569264 -268.2869873 268.40533447 C-265.12980181 265.22407337 -261.97825345 262.03739044 -258.83117676 258.84613037 C-257.38161847 257.38014126 -255.93203483 255.91417724 -254.48242188 254.44824219 C-253.52051186 253.46915642 -253.52051186 253.46915642 -252.53916931 252.47029114 C-248.80670045 248.70223441 -244.94457002 245.16592625 -240.93055153 241.70051765 C-237.94421375 239.07001542 -235.13594444 236.27551312 -232.32788086 233.45727539 C-231.71372818 232.84487503 -231.0995755 232.23247467 -230.46681213 231.60151672 C-228.46365601 229.60271494 -226.46412516 227.6003331 -224.46484375 225.59765625 C-223.05829696 224.19178434 -221.65160185 222.7860608 -220.24476624 221.38047791 C-217.30730236 218.44448232 -214.37163918 215.50670131 -211.43725586 212.56762695 C-207.6929794 208.81765377 -203.94423066 205.07218869 -200.19411373 201.32805729 C-197.2916656 198.42923828 -194.39162265 195.52802245 -191.49228096 192.62609673 C-190.11164105 191.24479405 -188.73026988 189.86422185 -187.34812737 188.48442268 C-178.0698279 179.24977641 -178.0698279 179.24977641 -169.31129456 169.5269928 C-167.59592384 167.5294563 -165.75056191 165.70077078 -163.84375 163.88671875 C-150.87880178 151.36792378 -139.98875841 139.07856573 -138.75 120.1875 C-138.77682773 116.04261516 -139.5727478 112.34517229 -140.5 108.3125 C-146.08022255 82.13287614 -142.66069685 52.64869141 -128 30 C-112.11522876 8.3614728 -88.99779174 -2.65139224 -63 -7 C-41.50911206 -10.1682443 -20.24951277 -7.65788749 0 0 Z " fill="#C6CCDF" transform="translate(443,10)"/>
<path d="M0 0 C2.703125 1.2421875 2.703125 1.2421875 5.25 2.875 C6.52617187 3.67550781 6.52617187 3.67550781 7.828125 4.4921875 C11.81501632 7.26006529 11.81501632 7.26006529 12.5625 10.25 C11.67667021 14.5807234 8.44442014 16.53964805 5 19 C0.90250576 21.41131702 -3.31555755 23.55295031 -7.5625 25.6875 C-8.76278978 26.30004035 -9.96265429 26.91341468 -11.16210938 27.52758789 C-17.81312057 30.92420766 -24.50148465 34.24464799 -31.19750977 37.55151367 C-49.07307 45.28280963 -49.07307 45.28280963 -60.75 59.8125 C-64.08533037 70.88727102 -62.77475517 83.60652567 -58 94 C-54.96522002 99.514841 -51.61498234 104.83167378 -48.17333984 110.09985352 C-46.98911763 112.01762328 -45.97707303 113.97002224 -45 116 C-59.18148067 109.62770472 -71.02778548 88.09720269 -76.4375 74.375 C-79.66702278 63.73574962 -79.41331665 51.61180922 -75.36328125 41.26171875 C-69.20808873 31.05009563 -55.66790221 26.30128632 -45.359375 21.17578125 C-44.67337723 20.83451706 -43.98737946 20.49325287 -43.28059387 20.14164734 C-39.82191578 18.4239151 -36.35866961 16.71641725 -32.88745117 15.02416992 C-31.55841871 14.3716292 -30.23004451 13.71774604 -28.90234375 13.0625 C-28.25069748 12.7411055 -27.59905121 12.419711 -26.92765808 12.08857727 C-21.42723723 9.32340003 -16.18819131 6.18335018 -11.04978943 2.79321289 C-7.198007 0.34961079 -4.55002634 -0.54426735 0 0 Z " fill="#858995" transform="translate(445,11)"/>
<path d="M0 0 C12.48920725 5.51653325 21.72502496 21.86592933 27 34 C29.29561343 41.80754086 29.47278733 53.39720151 26.625 61.125 C19.79531165 72.8472343 0.13461052 80.49700917 -12 85 C-22.83437797 87.57869053 -33.75525525 84.68942576 -44 81 C-44 80.01 -44 79.02 -44 78 C-41.66280537 76.78059411 -39.32558897 75.56123015 -36.98828125 74.34204102 C-34.93453668 73.27030059 -32.88115793 72.19785889 -30.828125 71.12475586 C-25.4262352 68.30249873 -20.01904751 65.49166633 -14.59765625 62.70703125 C-13.06347046 61.91570801 -13.06347046 61.91570801 -11.49829102 61.10839844 C-9.5439936 60.10077599 -7.58754496 59.09731163 -5.62866211 58.09863281 C3.95797169 53.39801845 3.95797169 53.39801845 10.9375 45.6875 C14.37334893 34.23467023 12.37813166 22.42345814 7 12 C5.20413491 8.94628726 3.34284035 5.97920154 1.35546875 3.046875 C0 1 0 1 0 0 Z " fill="#C5CBDE" transform="translate(93,409)"/>
<path d="M0 0 C5.969279 3.28191435 13.99153253 10.09959758 16.1875 16.6875 C15.506875 16.3575 14.82625 16.0275 14.125 15.6875 C7.95314455 13.58644283 2.69306306 14.83616487 -3.1875 17.1875 C-3.87521484 17.45449707 -4.56292969 17.72149414 -5.27148438 17.99658203 C-16.19717969 22.32483825 -26.69417064 27.60457212 -37.1875 32.875 C-39.72781394 34.1485589 -42.26943888 35.41943599 -44.8125 36.6875 C-45.87984375 37.21988281 -46.9471875 37.75226563 -48.046875 38.30078125 C-49.47773437 38.98720703 -49.47773437 38.98720703 -50.9375 39.6875 C-52.14792969 40.2753125 -52.14792969 40.2753125 -53.3828125 40.875 C-56.29135908 41.84763294 -58.76604167 41.82878502 -61.8125 41.6875 C-62.43189025 34.50257312 -62.10341052 26.73372894 -58.30908203 20.40234375 C-53.10271531 14.43667983 -44.03332246 11.78609571 -36.87597656 8.91601562 C-33.95529964 7.74476552 -31.06608756 6.51861998 -28.1796875 5.265625 C-8.07451918 -3.42253282 -8.07451918 -3.42253282 0 0 Z " fill="#868A96" transform="translate(61.8125,377.3125)"/>
<path d="M0 0 C-1.80090311 6.19060443 -4.23755261 11.97069394 -6.9375 17.8125 C-7.44120117 18.92419556 -7.44120117 18.92419556 -7.95507812 20.05834961 C-8.45491211 21.12194702 -8.45491211 21.12194702 -8.96484375 22.20703125 C-9.2599585 22.8410083 -9.55507324 23.47498535 -9.85913086 24.12817383 C-12.36776772 28.24409911 -15.48897599 30.49885114 -19.81640625 32.47265625 C-20.74646484 32.89740234 -21.67652344 33.32214844 -22.63476562 33.75976562 C-23.60091797 34.18966797 -24.56707031 34.61957031 -25.5625 35.0625 C-26.50158203 35.49626953 -27.44066406 35.93003906 -28.40820312 36.37695312 C-47.76462029 45.10527576 -47.76462029 45.10527576 -57 42 C-64.86761248 37.83851365 -70.94351704 31.40440858 -77 25 C-76.67 24.34 -76.34 23.68 -76 23 C-75.47792969 23.31195313 -74.95585937 23.62390625 -74.41796875 23.9453125 C-67.63288829 27.53391898 -63.20988662 27.19283945 -56 25 C-53.40456052 24.01759054 -50.83974048 23.01066089 -48.27734375 21.94921875 C-47.17349586 21.49293594 -47.17349586 21.49293594 -46.04734802 21.0274353 C-37.39073449 17.39578566 -28.98067339 13.27228644 -20.5625 9.125 C-18.97093944 8.34587124 -17.37914331 7.56722351 -15.78710938 6.7890625 C-1.908542 0 -1.908542 0 0 0 Z " fill="#C5CBDE" transform="translate(492,119)"/>
<path d="M0 0 C0.66 0.33 1.32 0.66 2 1 C-2.29 5.29 -6.58 9.58 -11 14 C-11 10.30159372 -10.17133056 9.68584567 -7.75 7 C-7.14671875 6.319375 -6.5434375 5.63875 -5.921875 4.9375 C-4.06233388 3.06284066 -2.15205789 1.52358081 0 0 Z " fill="#C1C5D7" transform="translate(40,341)"/>
</svg>
