<svg width="400" height="400" viewBox="0 0 400 400" fill="none" xmlns="http://www.w3.org/2000/svg">
<rect width="400" height="400" fill="#D9D9D9" fill-opacity="0.97"/>
<path d="M160.91 22.0132C161.831 22.0151 161.831 22.0151 162.77 22.017C171.641 22.0478 180.222 22.3321 188.902 24.3133C189.451 24.4288 190 24.5442 190.565 24.6632C208.78 28.5197 226.655 36.1506 241.674 47.2276C242.37 47.7279 243.067 48.2283 243.784 48.7438C270.69 68.6773 289.195 97.2618 297.094 129.728C297.229 130.282 297.364 130.836 297.504 131.408C299.706 141.004 300.285 150.478 300.262 160.28C300.261 161.166 300.261 161.166 300.26 162.071C300.186 187.512 293.945 213.989 279.251 235.207C278.285 236.71 278.285 236.71 278.896 238.044C280.178 240.062 281.783 241.664 283.478 243.331C283.85 243.702 284.222 244.073 284.606 244.456C285.853 245.699 287.106 246.938 288.359 248.176C289.254 249.067 290.15 249.958 291.045 250.85C292.974 252.769 294.905 254.687 296.837 256.603C299.897 259.638 302.951 262.678 306.003 265.719C314.685 274.368 323.375 283.008 332.071 291.642C336.873 296.41 341.67 301.183 346.462 305.961C349.491 308.981 352.526 311.994 355.565 315.003C357.463 316.884 359.355 318.771 361.245 320.66C362.117 321.529 362.991 322.396 363.869 323.26C371.154 330.442 377.86 337.474 378 348.278C377.931 357.438 376.307 362.999 370.133 370.11C368.384 371.695 366.571 373.017 364.578 374.277C363.697 374.878 363.697 374.878 362.798 375.492C356.402 378.772 347.195 378.988 340.318 377.054C332.489 373.554 326.51 367.053 320.578 361.066C319.675 360.162 318.77 359.258 317.866 358.354C315.431 355.921 313.003 353.48 310.576 351.039C308.032 348.481 305.481 345.929 302.931 343.377C298.112 338.551 293.298 333.721 288.487 328.888C283.005 323.382 277.517 317.883 272.028 312.384C260.746 301.08 249.472 289.769 238.202 278.453C235.632 279.283 233.466 280.086 231.215 281.578C221.502 287.537 210.94 291.966 200.012 295.118C199.327 295.319 199.327 295.319 198.628 295.524C195.412 296.45 192.178 297.214 188.902 297.896C188.418 298.001 187.934 298.105 187.436 298.213C170.445 301.732 150.28 301.731 133.352 297.896C132.802 297.78 132.252 297.665 131.685 297.546C113.472 293.689 95.5975 286.058 80.5797 274.981C79.8834 274.481 79.187 273.981 78.4695 273.465C51.5641 253.532 33.0584 224.947 25.1602 192.481C25.0248 191.927 24.8894 191.373 24.75 190.801C22.497 180.985 21.9926 171.344 22.0355 161.322C22.0368 160.708 22.0381 160.094 22.0394 159.461C22.0702 150.59 22.3545 142.009 24.3356 133.33C24.4511 132.781 24.5666 132.232 24.6855 131.666C28.5421 113.451 36.173 95.5762 47.2499 80.5574C47.7503 79.861 48.2506 79.1646 48.7661 78.4472C68.6997 51.5418 97.2842 33.0361 129.75 25.1379C130.304 25.0025 130.859 24.8671 131.43 24.7276C141.247 22.4746 150.887 21.9703 160.91 22.0132ZM134.152 39.2158C132.78 39.5589 131.397 39.8559 130.013 40.1482C98.5885 47.3762 71.9852 69.0993 54.888 95.8336C54.6142 96.2617 54.3404 96.6897 54.0583 97.1308C46.115 109.806 40.9172 124.209 38.2231 138.885C38.0963 139.538 37.9695 140.191 37.8389 140.863C36.6709 147.482 36.5591 154.014 36.5739 160.714C36.5739 161.295 36.5738 161.876 36.5737 162.475C36.5916 171.213 37.1068 179.567 39.2382 188.08C39.5812 189.451 39.8782 190.835 40.1706 192.218C47.3986 223.643 69.1217 250.246 95.8559 267.343C96.284 267.617 96.7121 267.891 97.1531 268.173C109.828 276.116 124.232 281.317 138.907 284.008C139.894 284.198 139.894 284.198 140.901 284.392C147.376 285.529 153.749 285.673 160.302 285.657C161.147 285.657 161.147 285.657 162.008 285.657C171.65 285.632 180.884 284.864 190.29 282.62C190.818 282.497 191.346 282.374 191.89 282.248C223.055 274.75 250.794 253.372 267.565 226.323C275.02 213.866 280.053 200.922 283.336 186.796C283.461 186.286 283.585 185.776 283.714 185.25C287.469 169.294 286.947 149.971 283.016 134.141C282.674 132.764 282.376 131.376 282.083 129.988C274.847 98.5637 253.135 71.9647 226.398 54.8657C225.97 54.5919 225.542 54.3181 225.101 54.036C212.425 46.0927 198.022 40.8949 183.347 38.2007C182.694 38.074 182.041 37.9472 181.368 37.8166C174.749 36.6486 168.217 36.5367 161.517 36.5516C160.936 36.5515 160.355 36.5514 159.757 36.5513C151.019 36.5693 142.665 37.0844 134.152 39.2158ZM266.993 250.969C266.579 251.423 266.165 251.878 265.738 252.347C265.276 252.848 264.815 253.349 264.339 253.866C263.603 254.673 263.603 254.673 262.852 255.496C258.755 259.928 254.624 264.142 250.006 268.038C251.12 270.819 253.076 272.674 255.176 274.732C255.544 275.098 255.912 275.464 256.291 275.841C257.462 277.004 258.638 278.163 259.814 279.321C260.611 280.111 261.408 280.901 262.204 281.692C264.152 283.625 266.105 285.554 268.06 287.48C270.148 286.483 271.545 285.523 273.138 283.835C274.736 282.181 276.351 280.649 278.128 279.191C280.443 277.252 282.378 275.086 284.324 272.782C285.337 271.605 286.39 270.509 287.502 269.426C286.389 266.663 284.459 264.794 282.382 262.732C282.017 262.366 281.652 262 281.277 261.623C280.508 260.854 279.737 260.086 278.965 259.319C277.781 258.142 276.603 256.958 275.427 255.772C274.679 255.025 273.93 254.278 273.181 253.532C272.828 253.176 272.475 252.82 272.111 252.454C269.765 249.785 269.765 249.785 266.993 250.969ZM296.806 280.168C294.485 282.498 292.223 284.832 290.106 287.35C286.802 291.209 282.952 294.518 279.17 297.896C282.29 301.63 285.585 305.112 289.023 308.555C289.578 309.113 290.132 309.671 290.704 310.247C292.527 312.08 294.353 313.91 296.179 315.741C297.454 317.019 298.729 318.298 300.003 319.576C302.33 321.909 304.658 324.241 306.986 326.572C310.404 329.993 313.818 333.419 317.227 336.848C320.192 339.831 323.163 342.807 326.136 345.781C327.396 347.042 328.653 348.306 329.909 349.571C331.666 351.339 333.428 353.1 335.193 354.86C335.708 355.382 336.223 355.903 336.753 356.44C340.587 360.243 344.226 363.554 349.909 363.601C354.898 363.419 358.045 361.521 361.412 357.934C363.527 354.936 363.567 351.639 363.694 348.07C362.351 342.048 357.258 337.496 353.015 333.303C352.427 332.713 351.838 332.123 351.231 331.515C349.633 329.915 348.03 328.319 346.425 326.726C344.741 325.053 343.064 323.374 341.385 321.697C338.572 318.886 335.756 316.08 332.937 313.277C329.314 309.674 325.697 306.065 322.083 302.454C318.974 299.347 315.861 296.243 312.748 293.139C311.747 292.141 310.747 291.143 309.746 290.144C307.89 288.292 306.03 286.443 304.171 284.594C303.615 284.039 303.059 283.484 302.486 282.912C301.983 282.413 301.48 281.913 300.961 281.399C300.522 280.962 300.082 280.524 299.63 280.074C298.206 278.778 298.239 278.853 296.806 280.168Z" fill="#001F3F"/>
<path d="M159.341 49.786C160.942 49.7882 162.542 49.7719 164.143 49.7543C173.515 49.7143 182.565 51.0395 191.592 53.6072C192.354 53.8231 192.354 53.8231 193.131 54.0433C220.614 62.1788 244.505 81.0908 258.556 106.119C267.533 122.661 272.499 140.492 272.446 159.319C272.443 160.92 272.46 162.52 272.477 164.121C272.517 173.492 271.192 182.542 268.624 191.57C268.408 192.332 268.408 192.332 268.188 193.109C260.053 220.591 241.141 244.483 216.112 258.534C199.57 267.511 181.739 272.477 162.913 272.423C161.312 272.421 159.712 272.437 158.111 272.455C148.739 272.495 139.689 271.17 130.661 268.602C129.9 268.386 129.9 268.386 129.122 268.166C101.64 260.031 77.7488 241.118 63.6979 216.09C54.721 199.548 49.7547 181.717 49.8082 162.891C49.8104 161.29 49.7941 159.689 49.7765 158.088C49.7365 148.717 51.0618 139.667 53.6295 130.639C53.7733 130.131 53.9172 129.623 54.0655 129.1C62.201 101.618 81.1131 77.7266 106.141 63.6756C122.683 54.6988 140.514 49.7325 159.341 49.786ZM136.129 67.3645C135.361 67.5711 135.361 67.5711 134.578 67.7819C109.775 74.5845 89.3788 91.5336 76.6359 113.605C72.5936 120.825 69.559 128.128 67.3867 136.107C67.1692 136.869 67.1692 136.869 66.9473 137.646C62.7139 152.962 63.0484 170.862 67.3867 186.102C67.5244 186.614 67.6622 187.126 67.8041 187.654C74.6067 212.456 91.5559 232.853 113.628 245.596C120.848 249.638 128.15 252.673 136.129 254.845C136.637 254.99 137.145 255.135 137.668 255.284C152.984 259.518 170.884 259.183 186.124 254.845C186.892 254.638 186.892 254.638 187.676 254.427C212.478 247.625 232.875 230.676 245.618 208.604C249.66 201.384 252.695 194.081 254.867 186.102C255.012 185.594 255.157 185.086 255.306 184.563C259.54 169.247 259.205 151.347 254.867 136.107C254.66 135.339 254.66 135.339 254.45 134.555C247.647 109.753 230.698 89.3566 208.626 76.6137C201.406 72.5714 194.104 69.5368 186.124 67.3645C185.362 67.147 185.362 67.147 184.585 66.9251C169.269 62.6917 151.369 63.0261 136.129 67.3645Z" fill="#001F3F"/>
<path d="M164.121 77.4324C164.738 77.4457 165.354 77.459 165.99 77.4728C188.662 78.2248 208.934 89.2643 224.252 105.595C231.052 113.117 238.714 123.607 239.895 133.893C239.561 136.325 239 137.644 237.508 139.579C235.324 141.035 233.992 141.196 231.418 141.355C228.977 140.744 227.342 139.333 225.703 137.496C224.631 135.703 223.849 133.827 223.056 131.897C220.628 126.397 217.787 121.981 213.899 117.359C213.407 116.754 212.915 116.149 212.407 115.525C201.188 102.321 184.188 94.2067 167.032 92.7927C166.195 92.7171 166.195 92.7171 165.342 92.6401C164.234 92.5432 163.125 92.4607 162.015 92.3946C159.192 92.1522 157.898 91.8503 155.572 90.0966C154.095 88.0747 153.711 87.1893 153.749 84.7233C153.74 84.1505 153.731 83.5776 153.722 82.9874C155.184 77.4825 159.284 77.2572 164.121 77.4324Z" fill="#001F3F"/>
<path d="M240.98 154.16C243.15 155.462 243.15 155.462 244.451 157.632C245.138 161.122 244.991 163.677 243.15 166.746C240.08 168.587 237.526 168.734 234.036 168.048C231.866 166.746 231.866 166.746 230.564 164.576C229.877 161.086 230.025 158.531 231.866 155.462C234.935 153.621 237.49 153.474 240.98 154.16Z" fill="#001F3F"/>
<circle cx="161.946" cy="161.338" r="84.8842" fill="#0D99FF" stroke="white" stroke-width="4.68327"/>
</svg>
