<?xml version="1.0" encoding="UTF-8"?>
<svg version="1.1" xmlns="http://www.w3.org/2000/svg" width="512" height="512">
<path d="M0 0 C2.10881138 1.54977894 2.10881138 1.54977894 4 4 C4.33773163 6.69952869 4.43825052 8.94557683 4.32933044 11.62931824 C4.31328119 12.37939469 4.29723193 13.12947113 4.28069633 13.90227717 C4.05758438 22.2636904 3.41838104 30.59727628 2.73071289 38.9309082 C2.59383776 40.65099653 2.45754882 42.37113159 2.3217926 44.09130859 C1.95598908 48.70456885 1.58187138 53.31711857 1.20592427 57.92956185 C0.81218748 62.77593862 0.42568312 67.6228929 0.03819275 72.46977234 C-0.61209882 80.59049488 -1.2675884 88.71078424 -1.92651367 96.83081055 C-2.68808759 106.21628092 -3.44251014 115.60230455 -4.19292253 124.98867351 C-4.99396694 135.00746487 -5.80014898 145.02583798 -6.60785985 155.04409385 C-6.83979215 157.92514029 -7.0707652 160.80626231 -7.30152702 163.68740273 C-7.66358763 168.20463191 -8.02908791 172.72157007 -8.39727211 177.23830414 C-8.53186437 178.89586526 -8.66531194 180.55351979 -8.79753876 182.21127129 C-8.9779849 184.47101451 -9.16257605 186.73038162 -9.34825134 188.98970032 C-9.45057036 190.25444341 -9.55288939 191.5191865 -9.65830898 192.82225513 C-9.92803665 195.33073695 -10.29084935 197.58834295 -11 200 C-10.32854824 199.99631283 -9.65709648 199.99262566 -8.9652977 199.98882675 C7.36762852 199.90051475 23.70047919 199.83430952 40.03358841 199.79275131 C47.93214742 199.77212021 55.83054714 199.74398934 63.72900391 199.69824219 C70.61277997 199.65839096 77.49644068 199.63257116 84.38032889 199.62364602 C88.02583581 199.61842829 91.67101268 199.60615392 95.31641388 199.57707977 C99.38459454 199.54489647 103.45220031 199.54403947 107.52050781 199.54589844 C109.33635628 199.52432678 109.33635628 199.52432678 111.18888855 199.50231934 C112.29664139 199.50781799 113.40439423 199.51331665 114.54571533 199.51898193 C115.50806721 199.51529476 116.47041908 199.51160759 117.46193314 199.50780869 C120.78018084 200.15129555 121.95864095 201.34980449 124 204 C124.97759823 210.11642053 123.71159289 213.3102522 120.19165039 218.28881836 C119.63340576 219.0391333 119.07516113 219.78944824 118.5 220.5625 C117.30063254 222.24208132 116.10142072 223.92177378 114.90234375 225.6015625 C114.26538574 226.47973633 113.62842773 227.35791016 112.97216797 228.26269531 C110.29058089 231.98465054 107.68346974 235.75619092 105.07421875 239.52905273 C98.84943253 248.52855252 92.564099 257.48616988 86.28491211 266.44775391 C79.16418826 276.61390092 72.08381489 286.80811896 65 297 C56.78021291 308.82626783 48.55399248 320.64770516 40.28857422 332.44213867 C35.84532185 338.7852428 31.4201321 345.1407678 27 351.5 C22.01251124 358.67548671 17.01503515 365.84373801 12 373 C4.30567962 383.9807786 -3.34756282 394.99001024 -11 406 C-19.21317597 417.81675606 -27.43208551 429.62918132 -35.69165039 441.41357422 C-41.00885944 449.00351641 -46.29948368 456.61186489 -51.58398438 464.22460938 C-52.82781567 466.01506846 -54.07331636 467.80436943 -55.32080078 469.59228516 C-56.38627419 471.12001106 -57.44764893 472.65061025 -58.50341797 474.18505859 C-61.77634529 478.88817265 -61.77634529 478.88817265 -64 480 C-71.20892641 480.58136503 -71.20892641 480.58136503 -74.10881138 478.45022106 C-76.65955138 475.14548625 -76.49144831 472.36519287 -76.32933044 468.37068176 C-76.31328119 467.62060531 -76.29723193 466.87052887 -76.28069633 466.09772283 C-76.05758438 457.7363096 -75.41838104 449.40272372 -74.73071289 441.0690918 C-74.59383776 439.34900347 -74.45754882 437.62886841 -74.3217926 435.90869141 C-73.95598908 431.29543115 -73.58187138 426.68288143 -73.20592427 422.07043815 C-72.81218748 417.22406138 -72.42568312 412.3771071 -72.03819275 407.53022766 C-71.38790118 399.40950512 -70.7324116 391.28921576 -70.07348633 383.16918945 C-69.31191241 373.78371908 -68.55748986 364.39769545 -67.80707747 355.01132649 C-67.00603306 344.99253513 -66.19985102 334.97416202 -65.39214015 324.95590615 C-65.16020785 322.07485971 -64.9292348 319.19373769 -64.69847298 316.31259727 C-64.33641237 311.79536809 -63.97091209 307.27842993 -63.60272789 302.76169586 C-63.46813563 301.10413474 -63.33468806 299.44648021 -63.20246124 297.78872871 C-63.0220151 295.52898549 -62.83742395 293.26961838 -62.65174866 291.01029968 C-62.54942964 289.74555659 -62.44711061 288.4808135 -62.34169102 287.17774487 C-62.07196335 284.66926305 -61.70915065 282.41165705 -61 280 C-61.67145176 280.00368717 -62.34290352 280.00737434 -63.0347023 280.01117325 C-79.36762852 280.09948525 -95.70047919 280.16569048 -112.03358841 280.20724869 C-119.93214742 280.22787979 -127.83054714 280.25601066 -135.72900391 280.30175781 C-142.61277997 280.34160904 -149.49644068 280.36742884 -156.38032889 280.37635398 C-160.02583581 280.38157171 -163.67101268 280.39384608 -167.31641388 280.42292023 C-171.38459454 280.45510353 -175.45220031 280.45596053 -179.52050781 280.45410156 C-180.73107346 280.46848267 -181.9416391 280.48286377 -183.18888855 280.49768066 C-184.29664139 280.49218201 -185.40439423 280.48668335 -186.54571533 280.48101807 C-187.98924314 280.48654882 -187.98924314 280.48654882 -189.46193314 280.49219131 C-192.78018084 279.84870445 -193.95864095 278.65019551 -196 276 C-196.97759823 269.88357947 -195.71159289 266.6897478 -192.19165039 261.71118164 C-191.63340576 260.9608667 -191.07516113 260.21055176 -190.5 259.4375 C-189.30063254 257.75791868 -188.10142072 256.07822622 -186.90234375 254.3984375 C-186.26538574 253.52026367 -185.62842773 252.64208984 -184.97216797 251.73730469 C-182.29058089 248.01534946 -179.68346974 244.24380908 -177.07421875 240.47094727 C-170.84943253 231.47144748 -164.564099 222.51383012 -158.28491211 213.55224609 C-151.16418826 203.38609908 -144.08381489 193.19188104 -137 183 C-128.77870475 171.17156229 -120.55038677 159.34837497 -112.28417969 147.55126953 C-105.16382268 137.38536174 -98.08358307 127.19154751 -91 117 C-82.78021291 105.17373217 -74.55399248 93.35229484 -66.28857422 81.55786133 C-61.84532185 75.2147572 -57.4201321 68.8592322 -53 62.5 C-47.45193352 54.51801163 -41.88813522 46.54734233 -36.30883789 38.5871582 C-30.99151223 30.99693945 -25.7006837 23.38837623 -20.41601562 15.77539062 C-19.17218433 13.98493154 -17.92668364 12.19563057 -16.67919922 10.40771484 C-15.61372581 8.87998894 -14.55235107 7.34938975 -13.49658203 5.81494141 C-9.7841383 0.48025336 -6.66140947 -1.36998799 0 0 Z " fill="#FFBB42" transform="translate(292,16)"/>
</svg>
